<svg xmlns="http://www.w3.org/2000/svg" viewBox="0 0 585 333"><defs><style>.cls-1{fill:#f9f9f9;}.cls-2{font-size:18px;font-family:HelveticaNeue-Bold, Helvetica Neue;font-weight:700;}.cls-2,.cls-8,.cls-9{fill:#005572;}.cls-3,.cls-4,.cls-5,.cls-7{fill:none;}.cls-3{stroke:#005572;}.cls-3,.cls-4{stroke-linecap:round;stroke-linejoin:round;}.cls-3,.cls-4,.cls-5{stroke-width:4px;}.cls-4,.cls-5,.cls-7{stroke:#055773;}.cls-5,.cls-7{stroke-miterlimit:10;}.cls-6{fill:#055773;}.cls-7{stroke-width:2px;}.cls-9{font-size:16px;font-family:HelveticaNeue-Medium, Helvetica Neue;font-weight:500;}.cls-10{letter-spacing:-0.02em;}</style></defs><g id="Layer_2" data-name="Layer 2"><g id="Layer_1-2" data-name="Layer 1"><rect class="cls-1" width="585" height="333"/><text class="cls-2" transform="translate(91.22 54.35)">Steps to limit the chance of a SIM swap attack</text><line class="cls-3" x1="490.64" y1="173.39" x2="493.33" y2="156.94"/><line class="cls-3" x1="482.4" y1="173.65" x2="490.7" y2="173.65"/><line class="cls-3" x1="462.71" y1="145.81" x2="496.87" y2="145.81"/><path class="cls-3" d="M493.33,156.94H473.84a11.13,11.13,0,0,1-11.13-11.13v-33.4a11.13,11.13,0,0,1,11.13-11.14h61.24a11.14,11.14,0,0,1,11.13,11.14v27.83"/><circle class="cls-3" cx="523.94" cy="162.51" r="22.27"/><path class="cls-4" d="M533.86,156l-10.78,14.38a2.79,2.79,0,0,1-4.19.3l-5.57-5.57"/><path class="cls-4" d="M60.73,163.71a6,6,0,0,1,5.88-6l23.54-.06a6,6,0,0,1,5.9,6l0,18.06a6,6,0,0,1-5.87,6l-23.54.05a6,6,0,0,1-5.9-6Z"/><path class="cls-4" d="M77.78,138.69h0a11.74,11.74,0,0,0-11.56,11.92l0,5.95,23.17-.06v-5.94A11.76,11.76,0,0,0,77.78,138.69Z"/><path class="cls-4" d="M78.41,170.46a1.68,1.68,0,1,0,1.66,1.67,1.68,1.68,0,0,0-1.66-1.67"/><path class="cls-5" d="M44.87,110.37l66.79-.16c4.25,0,7.71,4.13,7.72,9.25s-3.42,9.28-7.68,9.29l-66.79.16c-4.25,0-7.71-4.13-7.73-9.25S40.61,110.38,44.87,110.37Z"/><ellipse class="cls-6" cx="47.4" cy="119.83" rx="3.86" ry="3.9" transform="matrix(1, 0, 0, 1, -0.29, 0.12)"/><ellipse class="cls-6" cx="62.85" cy="119.79" rx="3.86" ry="3.9" transform="translate(-0.29 0.15) rotate(-0.14)"/><ellipse class="cls-6" cx="78.3" cy="119.75" rx="3.86" ry="3.9" transform="translate(-0.29 0.19) rotate(-0.14)"/><ellipse class="cls-6" cx="93.75" cy="119.72" rx="3.86" ry="3.9" transform="translate(-0.29 0.23) rotate(-0.14)"/><ellipse class="cls-6" cx="109.2" cy="119.68" rx="3.86" ry="3.9" transform="translate(-0.29 0.27) rotate(-0.14)"/><path id="Oval_2" data-name="Oval 2" class="cls-3" d="M362.17,116.53a13.19,13.19,0,1,0,13.19,13.19A13.19,13.19,0,0,0,362.17,116.53Z"/><path class="cls-3" d="M338.69,166.5h0a17.25,17.25,0,0,1,17.19-17.2h12.59a17.25,17.25,0,0,1,17.19,17.2h0"/><circle class="cls-3" cx="362.17" cy="142.32" r="34.45"/><path class="cls-7" d="M217.65,130l33.39-.08c2.13,0,3.86,2.07,3.87,4.63s-1.72,4.64-3.85,4.64l-33.39.08c-2.13,0-3.86-2.06-3.86-4.62S215.52,130,217.65,130Z"/><ellipse class="cls-6" cx="218.91" cy="134.69" rx="1.93" ry="1.95" transform="translate(-0.33 0.54) rotate(-0.14)"/><ellipse class="cls-6" cx="226.64" cy="134.67" rx="1.93" ry="1.95" transform="translate(-0.33 0.56) rotate(-0.14)"/><ellipse class="cls-6" cx="234.37" cy="134.66" rx="1.93" ry="1.95" transform="translate(-0.33 0.57) rotate(-0.14)"/><ellipse class="cls-6" cx="242.09" cy="134.64" rx="1.93" ry="1.95" transform="translate(-0.33 0.59) rotate(-0.14)"/><ellipse class="cls-6" cx="249.82" cy="134.62" rx="1.93" ry="1.95" transform="translate(-0.33 0.61) rotate(-0.14)"/><ellipse class="cls-6" cx="183.64" cy="114.67" rx="1.93" ry="1.95" transform="translate(-0.28 0.45) rotate(-0.14)"/><ellipse class="cls-6" cx="191.37" cy="114.66" rx="1.93" ry="1.95" transform="translate(-0.28 0.47) rotate(-0.14)"/><ellipse class="cls-6" cx="199.09" cy="114.64" rx="1.93" ry="1.95" transform="translate(-0.28 0.49) rotate(-0.14)"/><path class="cls-6" d="M235.76,180h-23a2.05,2.05,0,0,1-1.58-.74,2.07,2.07,0,0,1-.45-1.68l2.88-16.15a2.05,2.05,0,0,1,2-1.7h17.23a2.05,2.05,0,0,1,2,1.7l2.87,16.15a2.05,2.05,0,0,1-2,2.42Zm-20.52-4.11h18.07l-2.14-12H217.38Z"/><path class="cls-6" d="M255.25,163.88H193.3a7.6,7.6,0,0,1-7.69-7.48V151a2.06,2.06,0,0,1,4.11,0v5.43a3.48,3.48,0,0,0,3.58,3.36h61.95a3.48,3.48,0,0,0,3.58-3.36v-38a3.49,3.49,0,0,0-3.58-3.37H215.83a2.06,2.06,0,1,1,0-4.11h39.42a7.6,7.6,0,0,1,7.69,7.48v38A7.6,7.6,0,0,1,255.25,163.88Z"/><path class="cls-6" d="M260.89,152.75H187.66a2.06,2.06,0,0,1,0-4.11h73.23a2.06,2.06,0,0,1,0,4.11Z"/><path class="cls-8" d="M199.29,142.34H182.5a7.67,7.67,0,0,1-7.66-7.66V102.82a7.67,7.67,0,0,1,7.66-7.66h16.79a7.67,7.67,0,0,1,7.66,7.66v31.86A7.67,7.67,0,0,1,199.29,142.34ZM182.5,99.27a3.55,3.55,0,0,0-3.55,3.55v31.86a3.55,3.55,0,0,0,3.55,3.55h16.79a3.55,3.55,0,0,0,3.55-3.55V102.82a3.55,3.55,0,0,0-3.55-3.55Z"/><path class="cls-8" d="M204.89,131.21h-28a2.06,2.06,0,1,1,0-4.11h28a2.06,2.06,0,1,1,0,4.11Z"/><text class="cls-9" transform="translate(31.16 217.27)">Add a PIN or <tspan x="-17.2" y="19.2">passcode to your </tspan><tspan x="17.19" y="38.4">account</tspan></text><path class="cls-8" d="M181.45,205.85h2v6.65a11.46,11.46,0,0,0,.06,1.17,2.53,2.53,0,0,0,.32,1.07,2,2,0,0,0,.8.77,3.83,3.83,0,0,0,3,0,2,2,0,0,0,.8-.77,2.68,2.68,0,0,0,.32-1.07,11.46,11.46,0,0,0,.06-1.17v-6.65h2v7.31a4.88,4.88,0,0,1-.34,1.92,3.71,3.71,0,0,1-1,1.37,3.88,3.88,0,0,1-1.48.82,7,7,0,0,1-3.84,0,3.88,3.88,0,0,1-1.48-.82,3.71,3.71,0,0,1-1-1.37,4.88,4.88,0,0,1-.34-1.92Z"/><path class="cls-8" d="M194.25,214.62a1.39,1.39,0,0,0,.61,1.12,2.41,2.41,0,0,0,1.26.32c.17,0,.37,0,.59,0a2.38,2.38,0,0,0,.61-.16,1.07,1.07,0,0,0,.47-.32A.78.78,0,0,0,198,215a.8.8,0,0,0-.25-.58,1.78,1.78,0,0,0-.62-.36,5.79,5.79,0,0,0-.85-.23l-1-.21a7.41,7.41,0,0,1-1-.27,3.23,3.23,0,0,1-.85-.43,2,2,0,0,1-.6-.7,2.2,2.2,0,0,1-.23-1.05,1.86,1.86,0,0,1,.33-1.12,2.56,2.56,0,0,1,.83-.74,3.46,3.46,0,0,1,1.12-.39,6.17,6.17,0,0,1,1.18-.11,5.37,5.37,0,0,1,1.22.13,3.44,3.44,0,0,1,1.06.44,2.56,2.56,0,0,1,.78.79,2.84,2.84,0,0,1,.4,1.18h-1.91a1.11,1.11,0,0,0-.6-.88,2.45,2.45,0,0,0-1.08-.22l-.45,0a1.93,1.93,0,0,0-.5.12,1,1,0,0,0-.39.25.61.61,0,0,0-.16.44.68.68,0,0,0,.23.55,1.77,1.77,0,0,0,.61.34,5.47,5.47,0,0,0,.85.23l1,.21c.33.08.65.17,1,.27a3,3,0,0,1,.86.44,2.06,2.06,0,0,1,.6.68,2,2,0,0,1,.24,1,2.29,2.29,0,0,1-.34,1.25,2.66,2.66,0,0,1-.87.83,4,4,0,0,1-1.19.46,5.83,5.83,0,0,1-1.3.15,5.59,5.59,0,0,1-1.45-.18,3.49,3.49,0,0,1-1.15-.54,2.64,2.64,0,0,1-.77-.89,2.93,2.93,0,0,1-.29-1.27Z"/><path class="cls-8" d="M202.6,213.61a3.22,3.22,0,0,0,.14.93,2.33,2.33,0,0,0,.41.78,2.14,2.14,0,0,0,.68.54,2.35,2.35,0,0,0,1,.2,2.21,2.21,0,0,0,1.29-.35,2,2,0,0,0,.72-1h1.73a3.37,3.37,0,0,1-.49,1.2,3.48,3.48,0,0,1-2,1.43,4.68,4.68,0,0,1-1.29.19,4.45,4.45,0,0,1-1.73-.32,3.66,3.66,0,0,1-1.27-.9,3.75,3.75,0,0,1-.79-1.38,5.75,5.75,0,0,1-.26-1.76,4.92,4.92,0,0,1,.28-1.67,4.25,4.25,0,0,1,.8-1.39,4,4,0,0,1,4.67-.9,4,4,0,0,1,1.29,1.08,4.36,4.36,0,0,1,.74,1.55,4.53,4.53,0,0,1,.12,1.8Zm4.26-1.2a2.58,2.58,0,0,0-.19-.83,2.12,2.12,0,0,0-.41-.7,2,2,0,0,0-.64-.48,1.92,1.92,0,0,0-.84-.18,2.21,2.21,0,0,0-.87.16,2,2,0,0,0-.67.47,2.38,2.38,0,0,0-.64,1.56Z"/><path class="cls-8" d="M214.57,205.85h1.83v4.22h0a2.36,2.36,0,0,1,.46-.54,2.77,2.77,0,0,1,.6-.41,3.38,3.38,0,0,1,.69-.26,3.51,3.51,0,0,1,.71-.08,3.91,3.91,0,0,1,1.7.34,3.32,3.32,0,0,1,1.21.94,4.13,4.13,0,0,1,.72,1.4,6,6,0,0,1,.24,1.72,6.18,6.18,0,0,1-.21,1.61,4.47,4.47,0,0,1-.66,1.39,3.22,3.22,0,0,1-1.11,1,3.32,3.32,0,0,1-1.58.36,6.18,6.18,0,0,1-.85-.06,3.06,3.06,0,0,1-.8-.22,2.58,2.58,0,0,1-.7-.41,2.08,2.08,0,0,1-.52-.67h0v1.13h-1.73Zm6.37,7.29a3.91,3.91,0,0,0-.15-1.08,2.8,2.8,0,0,0-.43-.94,2.28,2.28,0,0,0-.72-.66,2,2,0,0,0-1-.24,2,2,0,0,0-1.73.8,3.51,3.51,0,0,0-.59,2.12,4.23,4.23,0,0,0,.15,1.16,2.57,2.57,0,0,0,.46.92,2.15,2.15,0,0,0,.73.61,2.25,2.25,0,0,0,2,0,2.24,2.24,0,0,0,.71-.66,2.76,2.76,0,0,0,.4-.93A4.74,4.74,0,0,0,220.94,213.14Z"/><path class="cls-8" d="M225.72,213.61a3.22,3.22,0,0,0,.14.93,2.33,2.33,0,0,0,.41.78,2.08,2.08,0,0,0,.69.54,2.27,2.27,0,0,0,1,.2,2.16,2.16,0,0,0,1.28-.35,2,2,0,0,0,.73-1h1.73a3.51,3.51,0,0,1-1.34,2.09,3.53,3.53,0,0,1-1.12.54,4.56,4.56,0,0,1-1.28.19,4.45,4.45,0,0,1-1.73-.32,3.66,3.66,0,0,1-1.27-.9,3.75,3.75,0,0,1-.79-1.38,5.75,5.75,0,0,1-.26-1.76,4.92,4.92,0,0,1,.28-1.67,4.25,4.25,0,0,1,.8-1.39,3.73,3.73,0,0,1,2.92-1.3,3.73,3.73,0,0,1,1.75.4,4,4,0,0,1,1.29,1.08,4.36,4.36,0,0,1,.74,1.55,4.53,4.53,0,0,1,.12,1.8Zm4.26-1.2a2.58,2.58,0,0,0-.19-.83,2.31,2.31,0,0,0-.41-.7,2,2,0,0,0-.64-.48,1.92,1.92,0,0,0-.84-.18,2.21,2.21,0,0,0-.87.16,2.18,2.18,0,0,0-.68.47,2.46,2.46,0,0,0-.44.69,2.3,2.3,0,0,0-.19.87Z"/><path class="cls-8" d="M232.36,209h1.38v-2.48h1.82V209h1.65v1.36h-1.65v4.42a3.48,3.48,0,0,0,0,.49.72.72,0,0,0,.11.35.56.56,0,0,0,.26.22,1.28,1.28,0,0,0,.48.07h.39a1.65,1.65,0,0,0,.38-.05v1.41l-.59.06a5.68,5.68,0,0,1-.59,0,4.07,4.07,0,0,1-1.16-.13,1.54,1.54,0,0,1-.69-.4,1.38,1.38,0,0,1-.34-.67,4.77,4.77,0,0,1-.1-.91v-4.88h-1.38Z"/><path class="cls-8" d="M237.69,209h1.38v-2.48h1.82V209h1.65v1.36h-1.65v4.42a3.48,3.48,0,0,0,0,.49.72.72,0,0,0,.11.35.48.48,0,0,0,.26.22,1.28,1.28,0,0,0,.48.07h.38a1.74,1.74,0,0,0,.39-.05v1.41l-.59.06a5.88,5.88,0,0,1-.6,0,4.17,4.17,0,0,1-1.16-.13,1.56,1.56,0,0,1-.68-.4,1.38,1.38,0,0,1-.34-.67,4.77,4.77,0,0,1-.1-.91v-4.88h-1.38Z"/><path class="cls-8" d="M245.27,213.61a3.22,3.22,0,0,0,.14.93,2.33,2.33,0,0,0,.41.78,2.08,2.08,0,0,0,.69.54,2.27,2.27,0,0,0,1,.2,2.21,2.21,0,0,0,1.29-.35,2,2,0,0,0,.72-1h1.73a3.37,3.37,0,0,1-.49,1.2,3.48,3.48,0,0,1-2,1.43,4.57,4.57,0,0,1-1.29.19,4.45,4.45,0,0,1-1.73-.32,3.65,3.65,0,0,1-2.06-2.28,5.75,5.75,0,0,1-.26-1.76,4.92,4.92,0,0,1,.28-1.67,4.25,4.25,0,0,1,.8-1.39,3.81,3.81,0,0,1,1.26-1,4.07,4.07,0,0,1,3.41.05,4,4,0,0,1,1.29,1.08,4.36,4.36,0,0,1,.74,1.55,4.53,4.53,0,0,1,.12,1.8Zm4.26-1.2a2.86,2.86,0,0,0-.18-.83,2.14,2.14,0,0,0-.42-.7,2,2,0,0,0-.64-.48,1.92,1.92,0,0,0-.84-.18,2.21,2.21,0,0,0-.87.16,2,2,0,0,0-.67.47,2.29,2.29,0,0,0-.45.69,2.76,2.76,0,0,0-.19.87Z"/><path class="cls-8" d="M252.75,209h1.71v1.6h0a2,2,0,0,1,.31-.66,3.4,3.4,0,0,1,.56-.58,2.53,2.53,0,0,1,.73-.42,2.14,2.14,0,0,1,.82-.16h.44l.24,0v1.76l-.39-.05a2.56,2.56,0,0,0-.39,0,2.13,2.13,0,0,0-.87.19,2,2,0,0,0-.71.54,2.45,2.45,0,0,0-.48.89,3.78,3.78,0,0,0-.18,1.22v3.93h-1.82Z"/><path class="cls-8" d="M198,236.47h-7.64A4.51,4.51,0,0,1,191,234a6,6,0,0,1,1.79-1.81c.36-.26.74-.52,1.14-.77a8.94,8.94,0,0,0,1.08-.81,4.23,4.23,0,0,0,.82-.94,2.32,2.32,0,0,0,.34-1.16,3.11,3.11,0,0,0-.08-.65,1.59,1.59,0,0,0-.28-.64,1.72,1.72,0,0,0-.57-.49,2,2,0,0,0-1-.2,1.78,1.78,0,0,0-.91.21,1.64,1.64,0,0,0-.57.6,2.77,2.77,0,0,0-.32.88,6.4,6.4,0,0,0-.12,1.11h-1.83a5.91,5.91,0,0,1,.25-1.72,3.72,3.72,0,0,1,.75-1.37,3.45,3.45,0,0,1,1.2-.9,4.47,4.47,0,0,1,3.37,0,3.34,3.34,0,0,1,1.11.85,2.87,2.87,0,0,1,.6,1.11,4,4,0,0,1,.18,1.15,3.3,3.3,0,0,1-.21,1.21,3.63,3.63,0,0,1-.56,1,4.89,4.89,0,0,1-.8.84,10.52,10.52,0,0,1-.93.72c-.32.23-.64.44-1,.64s-.61.41-.88.61a5.69,5.69,0,0,0-.72.63,1.74,1.74,0,0,0-.41.7H198Z"/><path class="cls-8" d="M199.37,231.26H204V233h-4.66Z"/><path class="cls-8" d="M205,228.2h1.35v-.69a3.48,3.48,0,0,1,.2-1.27,1.75,1.75,0,0,1,.51-.75,1.55,1.55,0,0,1,.73-.35,3.89,3.89,0,0,1,.85-.09,5.43,5.43,0,0,1,1.28.11v1.42l-.37-.07-.47,0a1.2,1.2,0,0,0-.64.17.8.8,0,0,0-.26.69v.85h1.55v1.36h-1.55v6.91h-1.83v-6.91H205Z"/><path class="cls-8" d="M217.74,234.63a.92.92,0,0,0,.09.48.36.36,0,0,0,.34.15h.19a.87.87,0,0,0,.26,0v1.27l-.25.07-.31.07-.32.05-.27,0a1.73,1.73,0,0,1-.93-.23,1.09,1.09,0,0,1-.48-.78,3.24,3.24,0,0,1-1.34.77,5.24,5.24,0,0,1-1.53.24,3.47,3.47,0,0,1-1.07-.16,2.9,2.9,0,0,1-.9-.44,2.23,2.23,0,0,1-.63-.76,2.33,2.33,0,0,1-.23-1.06,2.54,2.54,0,0,1,.28-1.25,2.13,2.13,0,0,1,.74-.75,3.28,3.28,0,0,1,1-.39c.38-.08.76-.14,1.15-.19a8.45,8.45,0,0,1,.94-.13,4.15,4.15,0,0,0,.79-.14,1.26,1.26,0,0,0,.55-.29.85.85,0,0,0,.2-.6,1,1,0,0,0-.17-.58,1.07,1.07,0,0,0-.42-.34,1.6,1.6,0,0,0-.55-.16,3.86,3.86,0,0,0-.58,0,2.23,2.23,0,0,0-1.26.32,1.23,1.23,0,0,0-.56,1h-1.82a2.75,2.75,0,0,1,.38-1.33,2.69,2.69,0,0,1,.86-.85,3.65,3.65,0,0,1,1.17-.45,7.53,7.53,0,0,1,1.35-.12,6.11,6.11,0,0,1,1.2.12,3.56,3.56,0,0,1,1.06.42,2.24,2.24,0,0,1,.76.74,2.1,2.1,0,0,1,.29,1.12Zm-1.82-2.3a2.28,2.28,0,0,1-1,.33c-.4,0-.81.09-1.22.16a5.73,5.73,0,0,0-.56.14,1.8,1.8,0,0,0-.48.24,1.16,1.16,0,0,0-.32.4,1.4,1.4,0,0,0-.12.6.8.8,0,0,0,.17.51,1.27,1.27,0,0,0,.43.33,1.8,1.8,0,0,0,.54.17,3.74,3.74,0,0,0,.54,0,3.11,3.11,0,0,0,.65-.08,2.32,2.32,0,0,0,.67-.28,1.83,1.83,0,0,0,.52-.48,1.23,1.23,0,0,0,.21-.73Z"/><path class="cls-8" d="M225.29,231a1.68,1.68,0,0,0-.62-1.16,2,2,0,0,0-1.27-.39,2.65,2.65,0,0,0-.75.12,1.79,1.79,0,0,0-.73.44,2.5,2.5,0,0,0-.57.92,4.53,4.53,0,0,0-.22,1.52,4.46,4.46,0,0,0,.12,1,3,3,0,0,0,.38.91,2.22,2.22,0,0,0,.68.65,2,2,0,0,0,1,.25,1.82,1.82,0,0,0,1.32-.5,2.25,2.25,0,0,0,.65-1.39h1.82a4,4,0,0,1-1.22,2.47,3.73,3.73,0,0,1-2.57.86,4.22,4.22,0,0,1-1.72-.33,3.68,3.68,0,0,1-1.25-.9,3.92,3.92,0,0,1-.78-1.35,5.18,5.18,0,0,1-.26-1.7,5.81,5.81,0,0,1,.25-1.74,4.06,4.06,0,0,1,.77-1.42,3.63,3.63,0,0,1,1.27-.94,4.3,4.3,0,0,1,1.79-.34,5,5,0,0,1,1.36.18,3.66,3.66,0,0,1,1.16.55,3.06,3.06,0,0,1,.82.93,3.19,3.19,0,0,1,.38,1.33Z"/><path class="cls-8" d="M227.77,228.2h1.38v-2.48H231v2.48h1.65v1.36H231V234a3.48,3.48,0,0,0,0,.49.72.72,0,0,0,.11.35.52.52,0,0,0,.26.22,1.28,1.28,0,0,0,.48.07h.38a1.74,1.74,0,0,0,.39,0v1.41l-.59.06a5.88,5.88,0,0,1-.6,0,4.17,4.17,0,0,1-1.16-.13,1.56,1.56,0,0,1-.68-.4,1.38,1.38,0,0,1-.34-.67,4.77,4.77,0,0,1-.1-.91v-4.88h-1.38Z"/><path class="cls-8" d="M237.72,236.7a4.5,4.5,0,0,1-1.77-.33,3.74,3.74,0,0,1-2.12-2.28,5.64,5.64,0,0,1,0-3.51A3.74,3.74,0,0,1,236,228.3a5.06,5.06,0,0,1,3.54,0,3.63,3.63,0,0,1,1.31.91,3.85,3.85,0,0,1,.82,1.37,5.64,5.64,0,0,1,0,3.51,3.85,3.85,0,0,1-.82,1.37,3.63,3.63,0,0,1-1.31.91A4.5,4.5,0,0,1,237.72,236.7Zm0-1.44a2.11,2.11,0,0,0,1.06-.26,2.13,2.13,0,0,0,.73-.67,2.78,2.78,0,0,0,.43-.94,4.16,4.16,0,0,0,.13-1.06,4.27,4.27,0,0,0-.13-1.06,2.65,2.65,0,0,0-.43-.93,2.13,2.13,0,0,0-.73-.67,2.1,2.1,0,0,0-1.06-.25,2.07,2.07,0,0,0-1.05.25,2.17,2.17,0,0,0-.74.67,2.82,2.82,0,0,0-.42.93,4.29,4.29,0,0,0-.14,1.06,4.17,4.17,0,0,0,.14,1.06,3,3,0,0,0,.42.94,2.17,2.17,0,0,0,.74.67A2.07,2.07,0,0,0,237.72,235.26Z"/><path class="cls-8" d="M243.42,228.2h1.71v1.6h0a2.19,2.19,0,0,1,.31-.66,3.82,3.82,0,0,1,.56-.58,2.66,2.66,0,0,1,.73-.42,2.14,2.14,0,0,1,.82-.16H248l.25,0v1.76l-.4-.05-.39,0a2.13,2.13,0,0,0-.87.19,2,2,0,0,0-.71.54,2.8,2.8,0,0,0-.48.89,3.78,3.78,0,0,0-.18,1.22v3.93h-1.82Z"/><path class="cls-8" d="M174,253.83a.92.92,0,0,0,.09.48.35.35,0,0,0,.34.15h.19a.87.87,0,0,0,.26,0v1.27l-.25.07-.31.07-.32,0-.27,0a1.73,1.73,0,0,1-.93-.23,1.09,1.09,0,0,1-.48-.78,3.3,3.3,0,0,1-1.34.77,5.29,5.29,0,0,1-1.53.24,3.47,3.47,0,0,1-1.07-.16,2.9,2.9,0,0,1-.9-.44,2.23,2.23,0,0,1-.63-.76,2.33,2.33,0,0,1-.23-1.06,2.44,2.44,0,0,1,.28-1.25,2,2,0,0,1,.74-.75,3.28,3.28,0,0,1,1-.39c.38-.08.76-.14,1.15-.19a8.45,8.45,0,0,1,.94-.13,4.15,4.15,0,0,0,.79-.14,1.26,1.26,0,0,0,.55-.29.85.85,0,0,0,.2-.6,1,1,0,0,0-.17-.58,1.07,1.07,0,0,0-.42-.34,1.6,1.6,0,0,0-.55-.16,4,4,0,0,0-.58,0,2.23,2.23,0,0,0-1.26.32,1.23,1.23,0,0,0-.56,1H167a2.75,2.75,0,0,1,.38-1.33,2.69,2.69,0,0,1,.86-.85,3.57,3.57,0,0,1,1.17-.45,7.53,7.53,0,0,1,1.35-.12,6.11,6.11,0,0,1,1.2.12,3.67,3.67,0,0,1,1.06.42,2.34,2.34,0,0,1,.76.74,2.1,2.1,0,0,1,.29,1.12Zm-1.83-2.3a2.24,2.24,0,0,1-1,.33c-.41,0-.81.09-1.22.16a5.09,5.09,0,0,0-.56.14,1.8,1.8,0,0,0-.48.24,1,1,0,0,0-.32.4,1.4,1.4,0,0,0-.12.6.75.75,0,0,0,.17.51,1.27,1.27,0,0,0,.43.33,1.8,1.8,0,0,0,.54.17,3.74,3.74,0,0,0,.54.05,3.11,3.11,0,0,0,.65-.08,2.32,2.32,0,0,0,.67-.28,1.83,1.83,0,0,0,.52-.48,1.3,1.3,0,0,0,.2-.73Z"/><path class="cls-8" d="M183.26,255.67h-1.79v-1.15h0a2.53,2.53,0,0,1-1,1,2.77,2.77,0,0,1-1.36.38,3.05,3.05,0,0,1-2.36-.81,3.57,3.57,0,0,1-.72-2.44V247.4h1.82v5.07a2.23,2.23,0,0,0,.42,1.54,1.48,1.48,0,0,0,1.16.45,2.22,2.22,0,0,0,1-.18,1.68,1.68,0,0,0,.63-.47,1.87,1.87,0,0,0,.34-.71,3.7,3.7,0,0,0,.11-.9v-4.8h1.82Z"/><path class="cls-8" d="M184.35,247.4h1.37v-2.48h1.83v2.48h1.65v1.36h-1.65v4.42c0,.19,0,.35,0,.49a.85.85,0,0,0,.11.35.54.54,0,0,0,.27.22,1.22,1.22,0,0,0,.48.07h.38a1.74,1.74,0,0,0,.39-.05v1.41l-.6.06a5.68,5.68,0,0,1-.59,0,4.07,4.07,0,0,1-1.16-.13,1.66,1.66,0,0,1-.69-.4,1.46,1.46,0,0,1-.33-.67,4.72,4.72,0,0,1-.11-.91v-4.88h-1.37Z"/><path class="cls-8" d="M190.51,244.25h1.82v4.24h0a2.67,2.67,0,0,1,1-.94,3,3,0,0,1,1.48-.37,3.11,3.11,0,0,1,2.15.7,2.7,2.7,0,0,1,.78,2.11v5.68H196v-5.2a2.19,2.19,0,0,0-.42-1.41,1.47,1.47,0,0,0-1.2-.44,2,2,0,0,0-.83.16,1.82,1.82,0,0,0-.62.47,2,2,0,0,0-.4.69,2.41,2.41,0,0,0-.15.85v4.88h-1.82Z"/><path class="cls-8" d="M201.12,252a3.22,3.22,0,0,0,.13.93,2.33,2.33,0,0,0,.41.78,2.08,2.08,0,0,0,.69.54,2.3,2.3,0,0,0,1,.2,2.21,2.21,0,0,0,1.29-.35,2,2,0,0,0,.72-1h1.73a3.37,3.37,0,0,1-.49,1.2,3.48,3.48,0,0,1-2,1.43,4.57,4.57,0,0,1-1.29.19,4.45,4.45,0,0,1-1.73-.32,3.65,3.65,0,0,1-2.06-2.28,5.75,5.75,0,0,1-.26-1.76,4.92,4.92,0,0,1,.28-1.67,4.25,4.25,0,0,1,.8-1.39,3.81,3.81,0,0,1,1.26-.95,4.07,4.07,0,0,1,3.41.05,4,4,0,0,1,1.29,1.08,4.56,4.56,0,0,1,.75,1.55,4.92,4.92,0,0,1,.12,1.8Zm4.25-1.2a2.86,2.86,0,0,0-.18-.83,2.14,2.14,0,0,0-.42-.7,2,2,0,0,0-.64-.48,1.92,1.92,0,0,0-.84-.18,2.21,2.21,0,0,0-.87.16,2,2,0,0,0-.67.47,2.29,2.29,0,0,0-.45.69,2.5,2.5,0,0,0-.18.87Z"/><path class="cls-8" d="M208.59,247.4h1.72v1.22l0,0a3,3,0,0,1,1.09-1.08,2.87,2.87,0,0,1,1.48-.39,3.11,3.11,0,0,1,2.15.7,2.7,2.7,0,0,1,.78,2.11v5.68H214v-5.2a2.19,2.19,0,0,0-.42-1.41,1.49,1.49,0,0,0-1.2-.44,2,2,0,0,0-.83.16,1.82,1.82,0,0,0-.62.47,2.18,2.18,0,0,0-.41.69,2.66,2.66,0,0,0-.14.85v4.88h-1.82Z"/><path class="cls-8" d="M216.94,247.4h1.37v-2.48h1.83v2.48h1.65v1.36h-1.65v4.42c0,.19,0,.35,0,.49a1,1,0,0,0,.11.35.54.54,0,0,0,.27.22,1.28,1.28,0,0,0,.48.07h.38a1.74,1.74,0,0,0,.39-.05v1.41l-.6.06a5.54,5.54,0,0,1-.59,0,4.12,4.12,0,0,1-1.16-.13,1.66,1.66,0,0,1-.69-.4,1.46,1.46,0,0,1-.33-.67,5.67,5.67,0,0,1-.11-.91v-4.88h-1.37Z"/><path class="cls-8" d="M223.15,244.25H225V246h-1.82Zm0,3.15H225v8.27h-1.82Z"/><path class="cls-8" d="M232.54,250.17a1.72,1.72,0,0,0-.62-1.16,2,2,0,0,0-1.27-.39,2.65,2.65,0,0,0-.75.12,1.89,1.89,0,0,0-.74.44,2.62,2.62,0,0,0-.56.92,4.29,4.29,0,0,0-.22,1.52,4.46,4.46,0,0,0,.12,1,3,3,0,0,0,.38.91,2.22,2.22,0,0,0,.68.65,2,2,0,0,0,1,.25,1.85,1.85,0,0,0,1.32-.5,2.3,2.3,0,0,0,.65-1.39h1.82a4,4,0,0,1-1.22,2.47,3.75,3.75,0,0,1-2.57.86,4.22,4.22,0,0,1-1.72-.33,3.62,3.62,0,0,1-2-2.25,5.18,5.18,0,0,1-.27-1.7,5.81,5.81,0,0,1,.26-1.74,4.06,4.06,0,0,1,.77-1.42,3.54,3.54,0,0,1,1.27-.94,4.28,4.28,0,0,1,1.78-.34,5.09,5.09,0,0,1,1.37.18,3.6,3.6,0,0,1,1.15.55,3,3,0,0,1,.83.93,3.19,3.19,0,0,1,.38,1.33Z"/><path class="cls-8" d="M242.78,253.83a.92.92,0,0,0,.09.48.35.35,0,0,0,.34.15h.19a.87.87,0,0,0,.26,0v1.27l-.25.07-.31.07-.32,0-.27,0a1.73,1.73,0,0,1-.93-.23,1.09,1.09,0,0,1-.48-.78,3.24,3.24,0,0,1-1.34.77,5.24,5.24,0,0,1-1.53.24,3.47,3.47,0,0,1-1.07-.16,2.9,2.9,0,0,1-.9-.44,2.23,2.23,0,0,1-.63-.76,2.33,2.33,0,0,1-.23-1.06,2.54,2.54,0,0,1,.28-1.25,2,2,0,0,1,.74-.75,3.28,3.28,0,0,1,1-.39c.38-.08.76-.14,1.15-.19a8.45,8.45,0,0,1,.94-.13,4.15,4.15,0,0,0,.79-.14,1.26,1.26,0,0,0,.55-.29.85.85,0,0,0,.2-.6,1,1,0,0,0-.17-.58,1.07,1.07,0,0,0-.42-.34,1.6,1.6,0,0,0-.55-.16,3.86,3.86,0,0,0-.58,0,2.23,2.23,0,0,0-1.26.32,1.23,1.23,0,0,0-.56,1h-1.82a2.75,2.75,0,0,1,.38-1.33,2.69,2.69,0,0,1,.86-.85,3.65,3.65,0,0,1,1.17-.45,7.53,7.53,0,0,1,1.35-.12,6.11,6.11,0,0,1,1.2.12,3.56,3.56,0,0,1,1.06.42,2.34,2.34,0,0,1,.76.74,2.1,2.1,0,0,1,.29,1.12Zm-1.83-2.3a2.2,2.2,0,0,1-1,.33c-.4,0-.81.09-1.22.16a5.73,5.73,0,0,0-.56.14,1.8,1.8,0,0,0-.48.24,1.07,1.07,0,0,0-.32.4,1.4,1.4,0,0,0-.12.6.8.8,0,0,0,.17.51,1.27,1.27,0,0,0,.43.33,1.8,1.8,0,0,0,.54.17,3.74,3.74,0,0,0,.54.05,3.11,3.11,0,0,0,.65-.08,2.32,2.32,0,0,0,.67-.28,1.83,1.83,0,0,0,.52-.48,1.3,1.3,0,0,0,.2-.73Z"/><path class="cls-8" d="M243.91,247.4h1.38v-2.48h1.82v2.48h1.65v1.36h-1.65v4.42a3.48,3.48,0,0,0,0,.49.72.72,0,0,0,.11.35.56.56,0,0,0,.26.22,1.28,1.28,0,0,0,.48.07h.39a1.65,1.65,0,0,0,.38-.05v1.41l-.59.06a5.68,5.68,0,0,1-.59,0,4.07,4.07,0,0,1-1.16-.13,1.6,1.6,0,0,1-.69-.4,1.47,1.47,0,0,1-.34-.67,5.75,5.75,0,0,1-.1-.91v-4.88h-1.38Z"/><path class="cls-8" d="M250.12,244.25H252V246h-1.83Zm0,3.15H252v8.27h-1.83Z"/><path class="cls-8" d="M257.72,255.9a4.5,4.5,0,0,1-1.77-.33,3.74,3.74,0,0,1-2.12-2.28,5.64,5.64,0,0,1,0-3.51A3.74,3.74,0,0,1,256,247.5a5.06,5.06,0,0,1,3.54,0,3.63,3.63,0,0,1,1.31.91,3.85,3.85,0,0,1,.82,1.37,5.64,5.64,0,0,1,0,3.51,3.85,3.85,0,0,1-.82,1.37,3.63,3.63,0,0,1-1.31.91A4.5,4.5,0,0,1,257.72,255.9Zm0-1.44a2.11,2.11,0,0,0,1.06-.26,2.13,2.13,0,0,0,.73-.67,2.78,2.78,0,0,0,.43-.94,4.16,4.16,0,0,0,.13-1.06,4.27,4.27,0,0,0-.13-1.06,2.65,2.65,0,0,0-.43-.93,2.13,2.13,0,0,0-.73-.67,2.1,2.1,0,0,0-1.06-.25,2.07,2.07,0,0,0-1.05.25,2.17,2.17,0,0,0-.74.67,2.82,2.82,0,0,0-.42.93,4.29,4.29,0,0,0-.14,1.06,4.17,4.17,0,0,0,.14,1.06,3,3,0,0,0,.42.94,2.17,2.17,0,0,0,.74.67A2.07,2.07,0,0,0,257.72,254.46Z"/><path class="cls-8" d="M263.42,247.4h1.73v1.22l0,0a3,3,0,0,1,1.09-1.08,2.87,2.87,0,0,1,1.48-.39,3.09,3.09,0,0,1,2.15.7,2.7,2.7,0,0,1,.78,2.11v5.68h-1.82v-5.2a2.19,2.19,0,0,0-.42-1.41,1.47,1.47,0,0,0-1.2-.44,2,2,0,0,0-.83.16,1.92,1.92,0,0,0-.62.47,2.15,2.15,0,0,0-.4.69,2.41,2.41,0,0,0-.15.85v4.88h-1.82Z"/><text class="cls-9" transform="translate(439.24 217.27)">Always take extra <tspan x="4.74" y="19.2">safety measu</tspan><tspan class="cls-10" x="103.15" y="19.2">r</tspan><tspan x="108.5" y="19.2">es</tspan></text><path class="cls-8" d="M322.27,205.85H327a5.28,5.28,0,0,1,2.27.45,4.07,4.07,0,0,1,1.57,1.22,5.19,5.19,0,0,1,.91,1.82,8.64,8.64,0,0,1,0,4.44,5.19,5.19,0,0,1-.91,1.82,4.07,4.07,0,0,1-1.57,1.22,5.28,5.28,0,0,1-2.27.45h-4.73Zm2,9.79h2a5,5,0,0,0,1.92-.31,2.8,2.8,0,0,0,1.16-.87,3,3,0,0,0,.58-1.29,8.72,8.72,0,0,0,0-3.22,3,3,0,0,0-.58-1.29,2.8,2.8,0,0,0-1.16-.87,5,5,0,0,0-1.92-.31h-2Z"/><path class="cls-8" d="M337.35,217.5a4.42,4.42,0,0,1-1.76-.33,3.76,3.76,0,0,1-1.32-.91,3.83,3.83,0,0,1-.81-1.37,5.64,5.64,0,0,1,0-3.51,3.83,3.83,0,0,1,.81-1.37,3.76,3.76,0,0,1,1.32-.91,4.6,4.6,0,0,1,1.76-.32,4.66,4.66,0,0,1,1.77.32,3.63,3.63,0,0,1,1.31.91,3.85,3.85,0,0,1,.82,1.37,5.64,5.64,0,0,1,0,3.51,3.85,3.85,0,0,1-.82,1.37,3.63,3.63,0,0,1-1.31.91A4.47,4.47,0,0,1,337.35,217.5Zm0-1.44a2.11,2.11,0,0,0,1.06-.26,2.26,2.26,0,0,0,.74-.67,3,3,0,0,0,.42-.94,4.17,4.17,0,0,0,.14-1.06,4.29,4.29,0,0,0-.14-1.06,2.82,2.82,0,0,0-.42-.93,2.26,2.26,0,0,0-.74-.67,2.35,2.35,0,0,0-2.11,0,2.17,2.17,0,0,0-.74.67,2.82,2.82,0,0,0-.42.93,4.29,4.29,0,0,0-.14,1.06,4.17,4.17,0,0,0,.14,1.06,3,3,0,0,0,.42.94,2.17,2.17,0,0,0,.74.67A2.1,2.1,0,0,0,337.35,216.06Z"/><path class="cls-8" d="M343.05,209h1.73v1.22l0,0a3,3,0,0,1,1.09-1.08,2.91,2.91,0,0,1,1.49-.39,3.08,3.08,0,0,1,2.14.7,2.7,2.7,0,0,1,.78,2.11v5.68h-1.82v-5.2a2.19,2.19,0,0,0-.42-1.41,1.47,1.47,0,0,0-1.2-.44,2,2,0,0,0-.83.16,1.92,1.92,0,0,0-.62.47,2.15,2.15,0,0,0-.4.69,2.41,2.41,0,0,0-.15.85v4.88h-1.82Z"/><path class="cls-8" d="M352.51,209.43a.9.9,0,0,0,.77-.49,2,2,0,0,0,.2-.93h-1v-2.16h2V208a2.36,2.36,0,0,1-.54,1.57,2.22,2.22,0,0,1-1.46.78Z"/><path class="cls-8" d="M355.56,209h1.38v-2.48h1.82V209h1.65v1.36h-1.65v4.42a3.48,3.48,0,0,0,0,.49.72.72,0,0,0,.11.35.52.52,0,0,0,.26.22,1.28,1.28,0,0,0,.48.07H360a1.73,1.73,0,0,0,.38-.05v1.41l-.59.06a5.68,5.68,0,0,1-.59,0,4.07,4.07,0,0,1-1.16-.13,1.54,1.54,0,0,1-.69-.4,1.38,1.38,0,0,1-.34-.67,4.77,4.77,0,0,1-.1-.91v-4.88h-1.38Z"/><path class="cls-8" d="M367.55,214.62a1.38,1.38,0,0,0,.6,1.12,2.47,2.47,0,0,0,1.27.32c.17,0,.36,0,.58,0a2.45,2.45,0,0,0,.62-.16,1.13,1.13,0,0,0,.47-.32.83.83,0,0,0,.17-.57.81.81,0,0,0-.26-.58,1.73,1.73,0,0,0-.61-.36,5.61,5.61,0,0,0-.86-.23l-1-.21a7.41,7.41,0,0,1-1-.27,3.23,3.23,0,0,1-.85-.43,2,2,0,0,1-.6-.7,2.21,2.21,0,0,1-.22-1.05,1.86,1.86,0,0,1,.33-1.12,2.37,2.37,0,0,1,.83-.74,3.38,3.38,0,0,1,1.12-.39,6.07,6.07,0,0,1,1.17-.11,5.46,5.46,0,0,1,1.23.13,3.29,3.29,0,0,1,1.05.44,2.59,2.59,0,0,1,.79.79,2.7,2.7,0,0,1,.39,1.18h-1.9a1.15,1.15,0,0,0-.6-.88,2.51,2.51,0,0,0-1.08-.22l-.46,0a2,2,0,0,0-.5.12,1.14,1.14,0,0,0-.39.25.66.66,0,0,0-.16.44.72.72,0,0,0,.23.55,1.87,1.87,0,0,0,.61.34,5.61,5.61,0,0,0,.86.23l1,.21c.33.08.66.17,1,.27a3,3,0,0,1,.85.44,2.09,2.09,0,0,1,.61.68,2.15,2.15,0,0,1,.23,1,2.28,2.28,0,0,1-.33,1.25,2.8,2.8,0,0,1-.88.83,3.78,3.78,0,0,1-1.19.46,5.81,5.81,0,0,1-1.29.15,5.48,5.48,0,0,1-1.45-.18,3.4,3.4,0,0,1-1.15-.54,2.44,2.44,0,0,1-.77-.89,2.8,2.8,0,0,1-.3-1.27Z"/><path class="cls-8" d="M374.47,205.85h1.83v4.24h0a2.6,2.6,0,0,1,1-.94,3,3,0,0,1,1.48-.37,3.07,3.07,0,0,1,2.14.7,2.67,2.67,0,0,1,.79,2.11v5.68h-1.83v-5.2a2.25,2.25,0,0,0-.41-1.41,1.5,1.5,0,0,0-1.2-.44,2,2,0,0,0-.83.16,1.86,1.86,0,0,0-.63.47,2.36,2.36,0,0,0-.4.69,2.66,2.66,0,0,0-.14.85v4.88h-1.83Z"/><path class="cls-8" d="M390.59,215.43a1.06,1.06,0,0,0,.08.48.38.38,0,0,0,.35.15h.19a.92.92,0,0,0,.26,0v1.27l-.25.07-.31.07-.32,0-.28,0a1.72,1.72,0,0,1-.92-.23,1.09,1.09,0,0,1-.48-.78,3.3,3.3,0,0,1-1.34.77,5.29,5.29,0,0,1-1.53.24,3.47,3.47,0,0,1-1.07-.16,2.9,2.9,0,0,1-.9-.44,2.13,2.13,0,0,1-.63-.76,2.33,2.33,0,0,1-.23-1.06,2.44,2.44,0,0,1,.28-1.25,2,2,0,0,1,.74-.75,3.28,3.28,0,0,1,1-.39c.38-.08.76-.14,1.14-.19a8.62,8.62,0,0,1,.95-.13,4.15,4.15,0,0,0,.79-.14,1.16,1.16,0,0,0,.54-.29.81.81,0,0,0,.2-.6,1,1,0,0,0-.16-.58,1.15,1.15,0,0,0-.42-.34,1.67,1.67,0,0,0-.55-.16,4,4,0,0,0-.58,0,2.23,2.23,0,0,0-1.26.32,1.23,1.23,0,0,0-.56,1h-1.83a2.61,2.61,0,0,1,1.24-2.18,3.71,3.71,0,0,1,1.18-.45,7.42,7.42,0,0,1,1.34-.12,6,6,0,0,1,1.2.12,3.62,3.62,0,0,1,1.07.42,2.34,2.34,0,0,1,.76.74,2.1,2.1,0,0,1,.29,1.12Zm-1.83-2.3a2.28,2.28,0,0,1-1,.33c-.41,0-.81.09-1.22.16a5.09,5.09,0,0,0-.56.14,1.8,1.8,0,0,0-.48.24,1,1,0,0,0-.33.4,1.4,1.4,0,0,0-.12.6.76.76,0,0,0,.18.51,1.34,1.34,0,0,0,.42.33,2,2,0,0,0,.55.17,3.61,3.61,0,0,0,.53.05,3.2,3.2,0,0,0,.66-.08,2.26,2.26,0,0,0,.66-.28,1.6,1.6,0,0,0,.52-.48,1.23,1.23,0,0,0,.21-.73Z"/><path class="cls-8" d="M392.55,209h1.72v1.6h0a2,2,0,0,1,.31-.66,3.05,3.05,0,0,1,.56-.58,2.53,2.53,0,0,1,.73-.42,2.09,2.09,0,0,1,.81-.16h.44l.25,0v1.76l-.39-.05a2.56,2.56,0,0,0-.39,0,2.13,2.13,0,0,0-.87.19,2,2,0,0,0-.72.54,2.8,2.8,0,0,0-.48.89,4.08,4.08,0,0,0-.17,1.22v3.93h-1.83Z"/><path class="cls-8" d="M399.32,213.61a3.22,3.22,0,0,0,.14.93,2.12,2.12,0,0,0,1.09,1.32,2.35,2.35,0,0,0,1,.2,2.16,2.16,0,0,0,1.28-.35,2,2,0,0,0,.73-1h1.73a3.51,3.51,0,0,1-1.34,2.09,3.63,3.63,0,0,1-1.12.54,4.56,4.56,0,0,1-1.28.19,4.45,4.45,0,0,1-1.73-.32,3.66,3.66,0,0,1-1.27-.9,3.75,3.75,0,0,1-.79-1.38,5.75,5.75,0,0,1-.26-1.76,4.92,4.92,0,0,1,.28-1.67,4.08,4.08,0,0,1,.8-1.39,3.68,3.68,0,0,1,1.25-1,4.09,4.09,0,0,1,3.42.05,4,4,0,0,1,1.29,1.08,4.36,4.36,0,0,1,.74,1.55,4.53,4.53,0,0,1,.12,1.8Zm4.26-1.2a2.58,2.58,0,0,0-.19-.83,2.31,2.31,0,0,0-.41-.7,2,2,0,0,0-.64-.48,1.92,1.92,0,0,0-.84-.18,2.21,2.21,0,0,0-.87.16,2.07,2.07,0,0,0-.68.47,2.46,2.46,0,0,0-.44.69,2.3,2.3,0,0,0-.19.87Z"/><path class="cls-8" d="M332.43,228.2h1.73v1.12h0a2.29,2.29,0,0,1,1.08-1,3.51,3.51,0,0,1,1.48-.31,4,4,0,0,1,1.71.34,3.41,3.41,0,0,1,1.21.94,4.13,4.13,0,0,1,.72,1.4,6,6,0,0,1,.24,1.72,6.19,6.19,0,0,1-.22,1.61,4,4,0,0,1-.66,1.39,3.22,3.22,0,0,1-1.11,1,3.29,3.29,0,0,1-1.58.36,4.26,4.26,0,0,1-.8-.08,3,3,0,0,1-.77-.23,2.8,2.8,0,0,1-.68-.41,2.21,2.21,0,0,1-.52-.58h0v4.13h-1.83Zm6.37,4.14a4.32,4.32,0,0,0-.14-1.08,3,3,0,0,0-.43-.94,2.51,2.51,0,0,0-.72-.66,2,2,0,0,0-1-.24,2,2,0,0,0-1.73.8,3.51,3.51,0,0,0-.59,2.12,4.22,4.22,0,0,0,.16,1.16,2.55,2.55,0,0,0,.45.92,2.25,2.25,0,0,0,.73.61,2.25,2.25,0,0,0,2,0,2.14,2.14,0,0,0,.71-.66,2.76,2.76,0,0,0,.4-.93A4.74,4.74,0,0,0,338.8,232.34Z"/><path class="cls-8" d="M343.59,232.81a3.22,3.22,0,0,0,.13.93,2.23,2.23,0,0,0,.41.78,2.08,2.08,0,0,0,.69.54,2.33,2.33,0,0,0,1,.2,2.21,2.21,0,0,0,1.29-.35,2.06,2.06,0,0,0,.73-1h1.72a3.37,3.37,0,0,1-.49,1.2,3.48,3.48,0,0,1-2,1.43,4.57,4.57,0,0,1-1.29.19,4.45,4.45,0,0,1-1.73-.32,3.76,3.76,0,0,1-1.27-.9,3.6,3.6,0,0,1-.78-1.38,5.46,5.46,0,0,1-.27-1.76,5.18,5.18,0,0,1,.28-1.67,4.44,4.44,0,0,1,.8-1.39,3.81,3.81,0,0,1,1.26-.95,4.07,4.07,0,0,1,3.41,0,4,4,0,0,1,1.29,1.08,4.56,4.56,0,0,1,.75,1.55,4.92,4.92,0,0,1,.12,1.8Zm4.25-1.2a2.86,2.86,0,0,0-.18-.83,2.14,2.14,0,0,0-.42-.7,1.93,1.93,0,0,0-1.48-.66,2.21,2.21,0,0,0-.87.16,2,2,0,0,0-.67.47,2.29,2.29,0,0,0-.45.69,2.5,2.5,0,0,0-.18.87Z"/><path class="cls-8" d="M351.06,228.2h1.71v1.6h0a2.19,2.19,0,0,1,.31-.66,3.82,3.82,0,0,1,.56-.58,2.66,2.66,0,0,1,.73-.42,2.14,2.14,0,0,1,.82-.16h.44l.25,0v1.76l-.4-.05-.39,0a2.13,2.13,0,0,0-.87.19,2,2,0,0,0-.71.54,2.8,2.8,0,0,0-.48.89,3.78,3.78,0,0,0-.18,1.22v3.93h-1.82Z"/><path class="cls-8" d="M358.07,233.82a1.38,1.38,0,0,0,.6,1.12,2.47,2.47,0,0,0,1.27.32c.17,0,.36,0,.58,0a2.45,2.45,0,0,0,.62-.16,1.13,1.13,0,0,0,.47-.32.83.83,0,0,0,.17-.57.81.81,0,0,0-.26-.58,1.73,1.73,0,0,0-.61-.36,5.61,5.61,0,0,0-.86-.23l-1-.21a7.41,7.41,0,0,1-1-.27,3.39,3.39,0,0,1-.85-.43,2,2,0,0,1-.6-.7,2.21,2.21,0,0,1-.22-1,1.86,1.86,0,0,1,.33-1.12,2.37,2.37,0,0,1,.83-.74,3.38,3.38,0,0,1,1.12-.39,6.07,6.07,0,0,1,1.17-.11,5.46,5.46,0,0,1,1.23.13,3.29,3.29,0,0,1,1,.44,2.59,2.59,0,0,1,.79.79,2.7,2.7,0,0,1,.39,1.18h-1.9a1.15,1.15,0,0,0-.6-.88,2.51,2.51,0,0,0-1.08-.22l-.46,0a2,2,0,0,0-.5.12,1.14,1.14,0,0,0-.39.25.66.66,0,0,0-.16.44.72.72,0,0,0,.23.55,1.87,1.87,0,0,0,.61.34,5.61,5.61,0,0,0,.86.23l1,.21c.33.08.66.17,1,.27a3,3,0,0,1,.85.44,2.09,2.09,0,0,1,.61.68,2.15,2.15,0,0,1,.23,1,2.26,2.26,0,0,1-.33,1.25,2.69,2.69,0,0,1-.88.83,3.78,3.78,0,0,1-1.19.46,5.81,5.81,0,0,1-1.29.15,5.48,5.48,0,0,1-1.45-.18,3.4,3.4,0,0,1-1.15-.54,2.44,2.44,0,0,1-.77-.89,2.8,2.8,0,0,1-.3-1.27Z"/><path class="cls-8" d="M368.79,236.7a4.47,4.47,0,0,1-1.77-.33,3.63,3.63,0,0,1-1.31-.91,3.85,3.85,0,0,1-.82-1.37,5.64,5.64,0,0,1,0-3.51,3.85,3.85,0,0,1,.82-1.37,3.63,3.63,0,0,1,1.31-.91,4.66,4.66,0,0,1,1.77-.32,4.6,4.6,0,0,1,1.76.32,3.76,3.76,0,0,1,1.32.91,3.83,3.83,0,0,1,.81,1.37,5.64,5.64,0,0,1,0,3.51,3.83,3.83,0,0,1-.81,1.37,3.76,3.76,0,0,1-1.32.91A4.42,4.42,0,0,1,368.79,236.7Zm0-1.44a2.1,2.1,0,0,0,1-.26,2.17,2.17,0,0,0,.74-.67,3,3,0,0,0,.42-.94,4.17,4.17,0,0,0,.14-1.06,4.29,4.29,0,0,0-.14-1.06,2.82,2.82,0,0,0-.42-.93,2.17,2.17,0,0,0-.74-.67,2.35,2.35,0,0,0-2.11,0,2.26,2.26,0,0,0-.74.67,2.82,2.82,0,0,0-.42.93,4.29,4.29,0,0,0-.14,1.06,4.17,4.17,0,0,0,.14,1.06,3,3,0,0,0,.42.94,2.26,2.26,0,0,0,.74.67A2.11,2.11,0,0,0,368.79,235.26Z"/><path class="cls-8" d="M374.48,228.2h1.73v1.22l0,0a3,3,0,0,1,1.09-1.08,2.91,2.91,0,0,1,1.49-.39,3.08,3.08,0,0,1,2.14.7,2.7,2.7,0,0,1,.79,2.11v5.68h-1.83v-5.2a2.25,2.25,0,0,0-.41-1.41,1.5,1.5,0,0,0-1.2-.44,2.06,2.06,0,0,0-.84.16,1.92,1.92,0,0,0-.62.47,2.36,2.36,0,0,0-.4.69,2.41,2.41,0,0,0-.14.85v4.88h-1.83Z"/><path class="cls-8" d="M390.59,234.63a.92.92,0,0,0,.09.48.37.37,0,0,0,.35.15h.19a.81.81,0,0,0,.25,0v1.27l-.24.07-.32.07-.32.05-.27,0a1.78,1.78,0,0,1-.93-.23,1.15,1.15,0,0,1-.48-.78,3.2,3.2,0,0,1-1.33.77,5.29,5.29,0,0,1-1.53.24,3.47,3.47,0,0,1-1.07-.16,3,3,0,0,1-.91-.44,2.1,2.1,0,0,1-.62-.76,2.21,2.21,0,0,1-.23-1.06,2.44,2.44,0,0,1,.28-1.25,2,2,0,0,1,.73-.75,3.44,3.44,0,0,1,1-.39c.38-.08.76-.14,1.14-.19a8.62,8.62,0,0,1,1-.13,4.3,4.3,0,0,0,.79-.14,1.16,1.16,0,0,0,.54-.29.85.85,0,0,0,.2-.6.89.89,0,0,0-.17-.58,1.12,1.12,0,0,0-.41-.34,1.67,1.67,0,0,0-.55-.16,4,4,0,0,0-.58,0,2.23,2.23,0,0,0-1.26.32,1.23,1.23,0,0,0-.56,1h-1.83a2.64,2.64,0,0,1,.39-1.33,2.76,2.76,0,0,1,.85-.85,3.71,3.71,0,0,1,1.18-.45,7.42,7.42,0,0,1,1.34-.12,6,6,0,0,1,1.2.12,3.62,3.62,0,0,1,1.07.42,2.44,2.44,0,0,1,.76.74,2.09,2.09,0,0,1,.28,1.12Zm-1.82-2.3a2.28,2.28,0,0,1-1,.33c-.41,0-.81.09-1.22.16a5.09,5.09,0,0,0-.56.14,1.8,1.8,0,0,0-.48.24,1.08,1.08,0,0,0-.33.4,1.4,1.4,0,0,0-.12.6.76.76,0,0,0,.18.51,1.23,1.23,0,0,0,.42.33,2,2,0,0,0,.55.17,3.49,3.49,0,0,0,.53,0,3.29,3.29,0,0,0,.66-.08,2.38,2.38,0,0,0,.66-.28,1.71,1.71,0,0,0,.52-.48,1.23,1.23,0,0,0,.21-.73Z"/><path class="cls-8" d="M392.61,225.05h1.82v11.42h-1.82Z"/><path class="cls-8" d="M314.51,244.25h1.83V246h-1.83Zm0,3.15h1.83v8.27h-1.83Z"/><path class="cls-8" d="M318.32,247.4h1.73v1.22l0,0a3,3,0,0,1,1.09-1.08,2.91,2.91,0,0,1,1.49-.39,3.07,3.07,0,0,1,2.14.7,2.67,2.67,0,0,1,.79,2.11v5.68h-1.83v-5.2a2.25,2.25,0,0,0-.41-1.41,1.5,1.5,0,0,0-1.2-.44,2.06,2.06,0,0,0-.84.16,1.92,1.92,0,0,0-.62.47,2.36,2.36,0,0,0-.4.69,2.41,2.41,0,0,0-.14.85v4.88h-1.83Z"/><path class="cls-8" d="M326.69,247.4h1.36v-.69a3.5,3.5,0,0,1,.19-1.27,1.78,1.78,0,0,1,.51-.75,1.6,1.6,0,0,1,.73-.35,4,4,0,0,1,.86-.09,5.55,5.55,0,0,1,1.28.11v1.42l-.38-.07-.47,0a1.16,1.16,0,0,0-.63.17.77.77,0,0,0-.27.69v.85h1.56v1.36h-1.56v6.91h-1.82v-6.91h-1.36Z"/><path class="cls-8" d="M336.34,255.9a4.5,4.5,0,0,1-1.77-.33,3.72,3.72,0,0,1-1.31-.91,3.85,3.85,0,0,1-.82-1.37,5.64,5.64,0,0,1,0-3.51,3.85,3.85,0,0,1,.82-1.37,3.72,3.72,0,0,1,1.31-.91,5.06,5.06,0,0,1,3.54,0,3.81,3.81,0,0,1,1.31.91,3.69,3.69,0,0,1,.81,1.37,5.64,5.64,0,0,1,0,3.51,3.69,3.69,0,0,1-.81,1.37,3.81,3.81,0,0,1-1.31.91A4.5,4.5,0,0,1,336.34,255.9Zm0-1.44a2.07,2.07,0,0,0,1.05-.26,2.17,2.17,0,0,0,.74-.67,3,3,0,0,0,.42-.94,3.76,3.76,0,0,0,.14-1.06,3.86,3.86,0,0,0-.14-1.06,2.82,2.82,0,0,0-.42-.93,2.17,2.17,0,0,0-.74-.67,2.07,2.07,0,0,0-1.05-.25,2.1,2.1,0,0,0-1.06.25,2.13,2.13,0,0,0-.73.67,2.65,2.65,0,0,0-.43.93,4.27,4.27,0,0,0-.13,1.06,4.16,4.16,0,0,0,.13,1.06,2.78,2.78,0,0,0,.43.94,2.13,2.13,0,0,0,.73.67A2.11,2.11,0,0,0,336.34,254.46Z"/><path class="cls-8" d="M342,247.4h1.72V249h0a2,2,0,0,1,.31-.66,3.05,3.05,0,0,1,.56-.58,2.53,2.53,0,0,1,.73-.42,2.09,2.09,0,0,1,.81-.16h.44l.25,0V249l-.39,0a2.56,2.56,0,0,0-.39,0,2.13,2.13,0,0,0-.87.19,2,2,0,0,0-.72.54,2.8,2.8,0,0,0-.48.89,4.08,4.08,0,0,0-.17,1.22v3.93H342Z"/><path class="cls-8" d="M347.67,247.4h1.72v1.15h.05a5,5,0,0,1,.45-.56,2.54,2.54,0,0,1,1.22-.71,3.33,3.33,0,0,1,.88-.1,3.07,3.07,0,0,1,1.4.33,2,2,0,0,1,.92,1,3.79,3.79,0,0,1,1.07-1,2.92,2.92,0,0,1,1.52-.36,3,3,0,0,1,2,.64,2.74,2.74,0,0,1,.73,2.14v5.71h-1.83v-4.83q0-.5,0-.9a1.85,1.85,0,0,0-.18-.71,1.05,1.05,0,0,0-.46-.45,1.75,1.75,0,0,0-.83-.16,1.57,1.57,0,0,0-1.35.57,2.82,2.82,0,0,0-.41,1.63v4.85h-1.83v-5.31a2.21,2.21,0,0,0-.31-1.3,1.29,1.29,0,0,0-1.14-.44,1.59,1.59,0,0,0-.68.14,1.69,1.69,0,0,0-.58.42,2.09,2.09,0,0,0-.4.67,2.55,2.55,0,0,0-.15.91v4.91h-1.82Z"/><path class="cls-8" d="M368.51,253.83a.92.92,0,0,0,.09.48.38.38,0,0,0,.35.15h.19a.81.81,0,0,0,.25,0v1.27l-.24.07-.32.07-.32,0-.27,0a1.78,1.78,0,0,1-.93-.23,1.15,1.15,0,0,1-.48-.78,3.2,3.2,0,0,1-1.33.77,5.29,5.29,0,0,1-1.53.24,3.47,3.47,0,0,1-1.07-.16,3,3,0,0,1-.91-.44,2.1,2.1,0,0,1-.62-.76,2.33,2.33,0,0,1-.23-1.06,2.44,2.44,0,0,1,.28-1.25,2,2,0,0,1,.73-.75,3.44,3.44,0,0,1,1-.39c.38-.08.76-.14,1.14-.19a8.62,8.62,0,0,1,.95-.13,4.3,4.3,0,0,0,.79-.14,1.16,1.16,0,0,0,.54-.29.81.81,0,0,0,.2-.6.89.89,0,0,0-.17-.58,1.12,1.12,0,0,0-.41-.34,1.67,1.67,0,0,0-.55-.16,4,4,0,0,0-.58,0,2.23,2.23,0,0,0-1.26.32,1.23,1.23,0,0,0-.56,1h-1.83a2.61,2.61,0,0,1,1.24-2.18,3.71,3.71,0,0,1,1.18-.45,7.34,7.34,0,0,1,1.34-.12,6,6,0,0,1,1.2.12,3.62,3.62,0,0,1,1.07.42,2.44,2.44,0,0,1,.76.74,2.09,2.09,0,0,1,.28,1.12Zm-1.82-2.3a2.28,2.28,0,0,1-1,.33c-.41,0-.81.09-1.22.16a5.09,5.09,0,0,0-.56.14,1.8,1.8,0,0,0-.48.24,1,1,0,0,0-.33.4,1.4,1.4,0,0,0-.12.6.76.76,0,0,0,.18.51,1.23,1.23,0,0,0,.42.33,2,2,0,0,0,.55.17,3.49,3.49,0,0,0,.53.05,3.29,3.29,0,0,0,.66-.08,2.38,2.38,0,0,0,.66-.28,1.71,1.71,0,0,0,.52-.48,1.23,1.23,0,0,0,.21-.73Z"/><path class="cls-8" d="M369.65,247.4H371v-2.48h1.82v2.48h1.65v1.36h-1.65v4.42c0,.19,0,.35,0,.49a.85.85,0,0,0,.12.35.48.48,0,0,0,.26.22,1.28,1.28,0,0,0,.48.07h.38a1.74,1.74,0,0,0,.39-.05v1.41l-.59.06a5.88,5.88,0,0,1-.6,0,4.12,4.12,0,0,1-1.16-.13,1.56,1.56,0,0,1-.68-.4,1.38,1.38,0,0,1-.34-.67,4.77,4.77,0,0,1-.1-.91v-4.88h-1.38Z"/><path class="cls-8" d="M375.86,244.25h1.82V246h-1.82Zm0,3.15h1.82v8.27h-1.82Z"/><path class="cls-8" d="M383.46,255.9a4.5,4.5,0,0,1-1.77-.33,3.72,3.72,0,0,1-1.31-.91,3.85,3.85,0,0,1-.82-1.37,5.64,5.64,0,0,1,0-3.51,3.85,3.85,0,0,1,.82-1.37,3.72,3.72,0,0,1,1.31-.91,5.06,5.06,0,0,1,3.54,0,3.81,3.81,0,0,1,1.31.91,3.69,3.69,0,0,1,.81,1.37,5.64,5.64,0,0,1,0,3.51,3.69,3.69,0,0,1-.81,1.37,3.81,3.81,0,0,1-1.31.91A4.5,4.5,0,0,1,383.46,255.9Zm0-1.44a2.1,2.1,0,0,0,1.05-.26,2.17,2.17,0,0,0,.74-.67,3,3,0,0,0,.42-.94,4.17,4.17,0,0,0,.14-1.06,4.29,4.29,0,0,0-.14-1.06,2.82,2.82,0,0,0-.42-.93,2.17,2.17,0,0,0-.74-.67,2.35,2.35,0,0,0-2.11,0,2.13,2.13,0,0,0-.73.67,2.65,2.65,0,0,0-.43.93,4.27,4.27,0,0,0-.13,1.06,4.16,4.16,0,0,0,.13,1.06,2.78,2.78,0,0,0,.43.94,2.13,2.13,0,0,0,.73.67A2.11,2.11,0,0,0,383.46,254.46Z"/><path class="cls-8" d="M389.15,247.4h1.73v1.22l0,0a3,3,0,0,1,1.09-1.08,2.93,2.93,0,0,1,1.49-.39,3.07,3.07,0,0,1,2.14.7,2.67,2.67,0,0,1,.79,2.11v5.68h-1.83v-5.2a2.25,2.25,0,0,0-.41-1.41,1.5,1.5,0,0,0-1.2-.44,2,2,0,0,0-.83.16,1.86,1.86,0,0,0-.63.47,2.36,2.36,0,0,0-.4.69,2.66,2.66,0,0,0-.14.85v4.88h-1.83Z"/><path class="cls-8" d="M399.46,250.46H411.3v1.72H399.46Z"/><path class="cls-8" d="M317.5,271.21a3.22,3.22,0,0,0,.13.93,2.41,2.41,0,0,0,.41.78,2.08,2.08,0,0,0,.69.54,2.33,2.33,0,0,0,1,.2,2.17,2.17,0,0,0,1.29-.35,2,2,0,0,0,.73-1h1.73a3.39,3.39,0,0,1-.5,1.2,3.43,3.43,0,0,1-.85.89,3.58,3.58,0,0,1-1.11.54,4.57,4.57,0,0,1-1.29.19,4.48,4.48,0,0,1-1.73-.32,3.6,3.6,0,0,1-2.05-2.28,5.46,5.46,0,0,1-.27-1.76,5.18,5.18,0,0,1,.28-1.67,4.44,4.44,0,0,1,.8-1.39,3.81,3.81,0,0,1,1.26-.95,4.09,4.09,0,0,1,3.42,0,4.07,4.07,0,0,1,1.28,1.08,4.38,4.38,0,0,1,.75,1.55,4.92,4.92,0,0,1,.12,1.8Zm4.25-1.2a2.86,2.86,0,0,0-.18-.83,2.14,2.14,0,0,0-.42-.7,1.93,1.93,0,0,0-1.48-.66,2.21,2.21,0,0,0-.87.16,2.13,2.13,0,0,0-.67.47,2.29,2.29,0,0,0-.45.69,2.5,2.5,0,0,0-.18.87Z"/><path class="cls-8" d="M326.35,272.22a1.38,1.38,0,0,0,.6,1.12,2.47,2.47,0,0,0,1.27.32c.17,0,.36,0,.58,0a2.45,2.45,0,0,0,.62-.16,1.13,1.13,0,0,0,.47-.32.83.83,0,0,0,.17-.57.81.81,0,0,0-.26-.58,1.73,1.73,0,0,0-.61-.36,5.61,5.61,0,0,0-.86-.23l-1-.21a7.86,7.86,0,0,1-1-.27,3.39,3.39,0,0,1-.85-.43,2,2,0,0,1-.6-.7,2.21,2.21,0,0,1-.22-1.05,1.86,1.86,0,0,1,.33-1.12,2.46,2.46,0,0,1,.83-.74,3.38,3.38,0,0,1,1.12-.39,6.07,6.07,0,0,1,1.17-.11,5.46,5.46,0,0,1,1.23.13,3.29,3.29,0,0,1,1.05.44,2.59,2.59,0,0,1,.79.79,2.7,2.7,0,0,1,.39,1.18h-1.9a1.15,1.15,0,0,0-.6-.88,2.51,2.51,0,0,0-1.08-.22l-.46,0a2,2,0,0,0-.5.12,1.14,1.14,0,0,0-.39.25.66.66,0,0,0-.16.44.72.72,0,0,0,.23.55,1.87,1.87,0,0,0,.61.34,5.61,5.61,0,0,0,.86.23l1,.21c.33.08.66.17,1,.27a3,3,0,0,1,.85.44,2.09,2.09,0,0,1,.61.68,2.15,2.15,0,0,1,.23,1,2.28,2.28,0,0,1-.33,1.25,2.8,2.8,0,0,1-.88.83,3.78,3.78,0,0,1-1.19.46,5.81,5.81,0,0,1-1.29.15,5.48,5.48,0,0,1-1.45-.18,3.4,3.4,0,0,1-1.15-.54,2.44,2.44,0,0,1-.77-.89,2.8,2.8,0,0,1-.3-1.27Z"/><path class="cls-8" d="M333.32,266.6h1.73v1.12h0a2.31,2.31,0,0,1,1.07-1,3.55,3.55,0,0,1,1.49-.31,4,4,0,0,1,1.71.34,3.37,3.37,0,0,1,1.2.94,4.13,4.13,0,0,1,.72,1.4,6,6,0,0,1,.24,1.72,6.18,6.18,0,0,1-.21,1.61,4.16,4.16,0,0,1-.66,1.39,3.22,3.22,0,0,1-1.11,1,3.32,3.32,0,0,1-1.58.36,4.26,4.26,0,0,1-.8-.08,2.86,2.86,0,0,1-.77-.23,2.62,2.62,0,0,1-.68-.41,2.21,2.21,0,0,1-.52-.58h0v4.13h-1.83Zm6.37,4.14a4.32,4.32,0,0,0-.14-1.08,2.81,2.81,0,0,0-.44-.94,2.28,2.28,0,0,0-.72-.66,2,2,0,0,0-1-.24,2,2,0,0,0-1.73.8,3.51,3.51,0,0,0-.59,2.12,4.23,4.23,0,0,0,.15,1.16,2.74,2.74,0,0,0,.46.92,2.25,2.25,0,0,0,.73.61,2.25,2.25,0,0,0,2,0,2.24,2.24,0,0,0,.71-.66,2.76,2.76,0,0,0,.4-.93A4.74,4.74,0,0,0,339.69,270.74Z"/><path class="cls-8" d="M344.47,271.21a3.22,3.22,0,0,0,.14.93,2.23,2.23,0,0,0,.41.78,2.08,2.08,0,0,0,.69.54,2.27,2.27,0,0,0,1,.2,2.21,2.21,0,0,0,1.29-.35,2,2,0,0,0,.72-1h1.73a3.37,3.37,0,0,1-.49,1.2,3.48,3.48,0,0,1-2,1.43,4.57,4.57,0,0,1-1.29.19,4.45,4.45,0,0,1-1.73-.32,3.66,3.66,0,0,1-1.27-.9,3.75,3.75,0,0,1-.79-1.38,5.75,5.75,0,0,1-.26-1.76,4.92,4.92,0,0,1,.28-1.67,4.25,4.25,0,0,1,.8-1.39,3.81,3.81,0,0,1,1.26-.95,4.07,4.07,0,0,1,3.41,0,4,4,0,0,1,1.29,1.08,4.36,4.36,0,0,1,.74,1.55,4.53,4.53,0,0,1,.12,1.8Zm4.26-1.2a2.86,2.86,0,0,0-.18-.83,2.33,2.33,0,0,0-.42-.7,2,2,0,0,0-.64-.48,1.92,1.92,0,0,0-.84-.18,2.21,2.21,0,0,0-.87.16,2,2,0,0,0-.67.47,2.29,2.29,0,0,0-.45.69,2.51,2.51,0,0,0-.19.87Z"/><path class="cls-8" d="M357.53,269.37a1.68,1.68,0,0,0-.62-1.16,2,2,0,0,0-1.27-.39,2.65,2.65,0,0,0-.75.12,1.89,1.89,0,0,0-.74.44,2.62,2.62,0,0,0-.56.92,4.29,4.29,0,0,0-.22,1.52,4.46,4.46,0,0,0,.12,1,3,3,0,0,0,.38.91,2.22,2.22,0,0,0,.68.65,2,2,0,0,0,1,.25,1.82,1.82,0,0,0,1.32-.5,2.3,2.3,0,0,0,.65-1.39h1.82a4,4,0,0,1-1.22,2.47,3.75,3.75,0,0,1-2.57.86,4.22,4.22,0,0,1-1.72-.33,3.68,3.68,0,0,1-1.25-.9,3.92,3.92,0,0,1-.78-1.35,5.18,5.18,0,0,1-.26-1.7,5.81,5.81,0,0,1,.25-1.74,4.06,4.06,0,0,1,.77-1.42,3.63,3.63,0,0,1,1.27-.94,4.3,4.3,0,0,1,1.79-.34,5,5,0,0,1,1.36.18,3.66,3.66,0,0,1,1.16.55,3.06,3.06,0,0,1,.82.93,3.19,3.19,0,0,1,.38,1.33Z"/><path class="cls-8" d="M360.89,263.45h1.82v1.73h-1.82Zm0,3.15h1.82v8.27h-1.82Z"/><path class="cls-8" d="M371.63,273a1.06,1.06,0,0,0,.08.48.38.38,0,0,0,.35.15h.19a.92.92,0,0,0,.26,0v1.27l-.25.07L372,275l-.32.05-.28,0a1.72,1.72,0,0,1-.92-.23,1.09,1.09,0,0,1-.48-.78,3.3,3.3,0,0,1-1.34.77,5.29,5.29,0,0,1-1.53.24,3.47,3.47,0,0,1-1.07-.16,2.9,2.9,0,0,1-.9-.44,2.13,2.13,0,0,1-.63-.76,2.33,2.33,0,0,1-.23-1.06,2.44,2.44,0,0,1,.28-1.25,2,2,0,0,1,.74-.75,3.28,3.28,0,0,1,1-.39c.38-.08.76-.14,1.14-.19a8.62,8.62,0,0,1,.95-.13,4.15,4.15,0,0,0,.79-.14,1.16,1.16,0,0,0,.54-.29.81.81,0,0,0,.2-.6,1,1,0,0,0-.16-.58,1.15,1.15,0,0,0-.42-.34,1.6,1.6,0,0,0-.55-.16,4,4,0,0,0-.58,0,2.23,2.23,0,0,0-1.26.32,1.23,1.23,0,0,0-.56,1h-1.83a2.61,2.61,0,0,1,1.24-2.18,3.71,3.71,0,0,1,1.18-.45,7.5,7.5,0,0,1,1.34-.12,6,6,0,0,1,1.2.12,3.62,3.62,0,0,1,1.07.42,2.34,2.34,0,0,1,.76.74,2.1,2.1,0,0,1,.29,1.12Zm-1.83-2.3a2.28,2.28,0,0,1-1,.33c-.41,0-.81.09-1.22.16a5.09,5.09,0,0,0-.56.14,1.8,1.8,0,0,0-.48.24,1,1,0,0,0-.33.4,1.4,1.4,0,0,0-.12.6.76.76,0,0,0,.18.51,1.34,1.34,0,0,0,.42.33,2,2,0,0,0,.55.17,3.61,3.61,0,0,0,.53.05,3.13,3.13,0,0,0,.66-.08,2.26,2.26,0,0,0,.66-.28,1.6,1.6,0,0,0,.52-.48,1.23,1.23,0,0,0,.21-.73Z"/><path class="cls-8" d="M373.64,263.45h1.83v11.42h-1.83Z"/><path class="cls-8" d="M377.5,263.45h1.82v11.42H377.5Z"/><path class="cls-8" d="M380.39,266.6h2l2.16,6.18h0l2.09-6.18h1.91l-3.22,8.72-.44,1.07a3.88,3.88,0,0,1-.53.91,2.22,2.22,0,0,1-.77.62,2.74,2.74,0,0,1-1.19.23,8.79,8.79,0,0,1-1.26-.09v-1.54l.43.07a2,2,0,0,0,.43,0,1.34,1.34,0,0,0,.53-.08.82.82,0,0,0,.34-.23,1.61,1.61,0,0,0,.24-.36,3.79,3.79,0,0,0,.17-.48l.21-.64Z"/><path class="cls-8" d="M397.85,275.1a4.5,4.5,0,0,1-1.77-.33,3.72,3.72,0,0,1-1.31-.91,3.85,3.85,0,0,1-.82-1.37,5.64,5.64,0,0,1,0-3.51,3.85,3.85,0,0,1,.82-1.37,3.72,3.72,0,0,1,1.31-.91,5.06,5.06,0,0,1,3.54,0,3.72,3.72,0,0,1,1.31.91,3.85,3.85,0,0,1,.82,1.37,5.64,5.64,0,0,1,0,3.51,3.85,3.85,0,0,1-.82,1.37,3.72,3.72,0,0,1-1.31.91A4.5,4.5,0,0,1,397.85,275.1Zm0-1.44a2.11,2.11,0,0,0,1.06-.26,2.23,2.23,0,0,0,.73-.67,3,3,0,0,0,.43-.94,4.16,4.16,0,0,0,.13-1.06,4.27,4.27,0,0,0-.13-1.06,2.84,2.84,0,0,0-.43-.93,2.23,2.23,0,0,0-.73-.67,2.37,2.37,0,0,0-2.12,0,2.23,2.23,0,0,0-.73.67,2.84,2.84,0,0,0-.43.93,4.27,4.27,0,0,0-.13,1.06,4.16,4.16,0,0,0,.13,1.06,3,3,0,0,0,.43.94,2.23,2.23,0,0,0,.73.67A2.11,2.11,0,0,0,397.85,273.66Z"/><path class="cls-8" d="M403.55,266.6h1.72v1.22l0,0a3,3,0,0,1,1.08-1.08,2.93,2.93,0,0,1,1.49-.39,3.11,3.11,0,0,1,2.15.7,2.7,2.7,0,0,1,.78,2.11v5.68H409v-5.2a2.25,2.25,0,0,0-.42-1.41,1.5,1.5,0,0,0-1.2-.44,2,2,0,0,0-.83.16,1.86,1.86,0,0,0-.63.47,2.36,2.36,0,0,0-.4.69,2.66,2.66,0,0,0-.14.85v4.88h-1.82Z"/><path class="cls-8" d="M319.23,291.42a1.41,1.41,0,0,0,.61,1.12,2.44,2.44,0,0,0,1.27.32c.17,0,.36,0,.58,0a2.57,2.57,0,0,0,.62-.16,1.13,1.13,0,0,0,.47-.32.83.83,0,0,0,.17-.57.81.81,0,0,0-.26-.58,1.69,1.69,0,0,0-.62-.36,5.47,5.47,0,0,0-.85-.23l-1-.21a7.41,7.41,0,0,1-1-.27,3.23,3.23,0,0,1-.85-.43,2,2,0,0,1-.6-.7,2.21,2.21,0,0,1-.22-1.05,1.92,1.92,0,0,1,.32-1.12,2.5,2.5,0,0,1,.84-.74,3.38,3.38,0,0,1,1.12-.39,6.07,6.07,0,0,1,1.17-.11,5.46,5.46,0,0,1,1.23.13,3.29,3.29,0,0,1,1.05.44,2.59,2.59,0,0,1,.79.79,3,3,0,0,1,.39,1.18h-1.91a1.11,1.11,0,0,0-.6-.88,2.45,2.45,0,0,0-1.08-.22l-.45,0a2,2,0,0,0-.5.12,1.14,1.14,0,0,0-.39.25.61.61,0,0,0-.16.44.72.72,0,0,0,.23.55,1.87,1.87,0,0,0,.61.34,5.61,5.61,0,0,0,.86.23l1,.21c.33.08.65.17,1,.27a3,3,0,0,1,.86.44,2.21,2.21,0,0,1,.61.68,2.15,2.15,0,0,1,.23,1,2.21,2.21,0,0,1-.34,1.25,2.66,2.66,0,0,1-.87.83,3.78,3.78,0,0,1-1.19.46,5.83,5.83,0,0,1-1.3.15,5.46,5.46,0,0,1-1.44-.18,3.45,3.45,0,0,1-1.16-.54,2.51,2.51,0,0,1-.76-.89,2.8,2.8,0,0,1-.3-1.27Z"/><path class="cls-8" d="M330,294.3a4.42,4.42,0,0,1-1.76-.33,3.76,3.76,0,0,1-1.32-.91,4,4,0,0,1-.81-1.37,5.64,5.64,0,0,1,0-3.51,4,4,0,0,1,.81-1.37,3.76,3.76,0,0,1,1.32-.91,5,5,0,0,1,3.53,0,3.63,3.63,0,0,1,1.31.91,3.85,3.85,0,0,1,.82,1.37,5.64,5.64,0,0,1,0,3.51,3.85,3.85,0,0,1-.82,1.37,3.63,3.63,0,0,1-1.31.91A4.44,4.44,0,0,1,330,294.3Zm0-1.44a2.11,2.11,0,0,0,1.06-.26,2.26,2.26,0,0,0,.74-.67,3,3,0,0,0,.42-.94,4.17,4.17,0,0,0,.14-1.06,4.29,4.29,0,0,0-.14-1.06,2.82,2.82,0,0,0-.42-.93,2.26,2.26,0,0,0-.74-.67,2.35,2.35,0,0,0-2.11,0,2.17,2.17,0,0,0-.74.67,2.82,2.82,0,0,0-.42.93,4.29,4.29,0,0,0-.14,1.06,4.17,4.17,0,0,0,.14,1.06,3,3,0,0,0,.42.94,2.17,2.17,0,0,0,.74.67A2.1,2.1,0,0,0,330,292.86Z"/><path class="cls-8" d="M341.23,288.57a1.71,1.71,0,0,0-.61-1.16,2,2,0,0,0-1.27-.39,2.66,2.66,0,0,0-.76.12,1.86,1.86,0,0,0-.73.44,2.48,2.48,0,0,0-.56.92,4.26,4.26,0,0,0-.23,1.52,4.46,4.46,0,0,0,.12,1,2.76,2.76,0,0,0,.39.91,2,2,0,0,0,.68.65,2,2,0,0,0,1,.25,1.85,1.85,0,0,0,1.32-.5,2.29,2.29,0,0,0,.64-1.39h1.83a4,4,0,0,1-1.23,2.47,3.72,3.72,0,0,1-2.56.86,4.19,4.19,0,0,1-1.72-.33,3.62,3.62,0,0,1-1.26-.9,3.92,3.92,0,0,1-.78-1.35,5.46,5.46,0,0,1-.26-1.7,5.81,5.81,0,0,1,.26-1.74,4,4,0,0,1,.76-1.42,3.67,3.67,0,0,1,1.28-.94,4.25,4.25,0,0,1,1.78-.34,5.09,5.09,0,0,1,1.37.18,3.71,3.71,0,0,1,1.15.55,2.93,2.93,0,0,1,.82.93,3.05,3.05,0,0,1,.39,1.33Z"/><path class="cls-8" d="M344.59,282.65h1.83v1.73h-1.83Zm0,3.15h1.83v8.27h-1.83Z"/><path class="cls-8" d="M355.33,292.23a.92.92,0,0,0,.09.48.36.36,0,0,0,.34.15H356a.87.87,0,0,0,.26,0v1.27l-.25.07-.31.07-.32,0-.27,0a1.76,1.76,0,0,1-.93-.23,1.09,1.09,0,0,1-.48-.78,3.24,3.24,0,0,1-1.34.77,5.17,5.17,0,0,1-1.52.24,3.53,3.53,0,0,1-1.08-.16,2.9,2.9,0,0,1-.9-.44,2.1,2.1,0,0,1-.62-.76,2.21,2.21,0,0,1-.24-1.06,2.54,2.54,0,0,1,.28-1.25,2.13,2.13,0,0,1,.74-.75,3.38,3.38,0,0,1,1-.39c.38-.08.76-.14,1.15-.19a8.45,8.45,0,0,1,.94-.13,4.15,4.15,0,0,0,.79-.14,1.26,1.26,0,0,0,.55-.29.85.85,0,0,0,.2-.6,1,1,0,0,0-.17-.58,1.07,1.07,0,0,0-.42-.34,1.6,1.6,0,0,0-.55-.16,3.82,3.82,0,0,0-.57,0,2.24,2.24,0,0,0-1.27.32,1.23,1.23,0,0,0-.56,1h-1.82a2.75,2.75,0,0,1,.38-1.33,2.79,2.79,0,0,1,.86-.85,3.65,3.65,0,0,1,1.17-.45,7.53,7.53,0,0,1,1.35-.12,6.11,6.11,0,0,1,1.2.12,3.56,3.56,0,0,1,1.06.42,2.24,2.24,0,0,1,.76.74,2.1,2.1,0,0,1,.29,1.12Zm-1.82-2.3a2.28,2.28,0,0,1-1,.33c-.4,0-.81.09-1.21.16a4.58,4.58,0,0,0-.56.14,1.54,1.54,0,0,0-.48.24,1,1,0,0,0-.33.4,1.4,1.4,0,0,0-.12.6.8.8,0,0,0,.17.51,1.27,1.27,0,0,0,.43.33,1.8,1.8,0,0,0,.54.17,3.74,3.74,0,0,0,.54.05,3.11,3.11,0,0,0,.65-.08,2.32,2.32,0,0,0,.67-.28,1.71,1.71,0,0,0,.52-.48,1.23,1.23,0,0,0,.21-.73Z"/><path class="cls-8" d="M357.35,282.65h1.82v11.42h-1.82Z"/><path class="cls-8" d="M365.6,285.8h1.73V287h.05a5,5,0,0,1,.45-.56,2.44,2.44,0,0,1,.53-.43,2.77,2.77,0,0,1,.68-.28,3.38,3.38,0,0,1,.88-.1,3,3,0,0,1,1.4.33,1.92,1.92,0,0,1,.92,1,3.92,3.92,0,0,1,1.07-1,3.49,3.49,0,0,1,3.56.28,2.7,2.7,0,0,1,.73,2.14v5.71h-1.82v-4.83q0-.5,0-.9a2,2,0,0,0-.19-.71,1,1,0,0,0-.45-.45,1.79,1.79,0,0,0-.84-.16,1.56,1.56,0,0,0-1.34.57,2.75,2.75,0,0,0-.42,1.63v4.85h-1.82v-5.31a2.21,2.21,0,0,0-.31-1.3,1.3,1.3,0,0,0-1.15-.44,1.63,1.63,0,0,0-.68.14,1.66,1.66,0,0,0-.57.42,1.93,1.93,0,0,0-.4.67,2.55,2.55,0,0,0-.15.91v4.91H365.6Z"/><path class="cls-8" d="M381,290.41a3.22,3.22,0,0,0,.13.93,2.33,2.33,0,0,0,.41.78,2.08,2.08,0,0,0,.69.54,2.33,2.33,0,0,0,1,.2,2.21,2.21,0,0,0,1.29-.35,2.06,2.06,0,0,0,.73-1h1.72a3.37,3.37,0,0,1-.49,1.2,3.48,3.48,0,0,1-2,1.43,4.57,4.57,0,0,1-1.29.19,4.45,4.45,0,0,1-1.73-.32,3.76,3.76,0,0,1-1.27-.9,3.6,3.6,0,0,1-.78-1.38,5.46,5.46,0,0,1-.27-1.76,5.18,5.18,0,0,1,.28-1.67,4.44,4.44,0,0,1,.8-1.39,3.81,3.81,0,0,1,1.26-.95,4.07,4.07,0,0,1,3.41.05,4,4,0,0,1,1.29,1.08,4.56,4.56,0,0,1,.75,1.55,4.92,4.92,0,0,1,.12,1.8Zm4.25-1.2a2.86,2.86,0,0,0-.18-.83,2.14,2.14,0,0,0-.42-.7,1.93,1.93,0,0,0-1.48-.66,2.21,2.21,0,0,0-.87.16,2,2,0,0,0-.67.47,2.29,2.29,0,0,0-.45.69,2.5,2.5,0,0,0-.18.87Z"/><path class="cls-8" d="M396.21,294.07h-1.73V293h0a2.14,2.14,0,0,1-1.07,1,3.63,3.63,0,0,1-1.49.32,3.91,3.91,0,0,1-1.7-.35A3.41,3.41,0,0,1,389,293a4.13,4.13,0,0,1-.72-1.4,6.1,6.1,0,0,1-.24-1.74,5.65,5.65,0,0,1,.3-1.94,3.78,3.78,0,0,1,.81-1.34,3.26,3.26,0,0,1,1.15-.78,3.76,3.76,0,0,1,1.32-.24,4.29,4.29,0,0,1,.79.07,3.34,3.34,0,0,1,.76.23,2.74,2.74,0,0,1,.68.41,2,2,0,0,1,.52.58h0v-4.22h1.82ZM389.84,290a4,4,0,0,0,.14,1,3,3,0,0,0,.41.92,2.22,2.22,0,0,0,.72.64,2.27,2.27,0,0,0,2.07,0,2.2,2.2,0,0,0,.72-.67,3.19,3.19,0,0,0,.41-.94,4.17,4.17,0,0,0,.14-1.06,3.38,3.38,0,0,0-.62-2.15,2,2,0,0,0-1.67-.76,2.06,2.06,0,0,0-1.08.26,2.37,2.37,0,0,0-.72.69,3,3,0,0,0-.4,1A5,5,0,0,0,389.84,290Z"/><path class="cls-8" d="M398.24,282.65h1.83v1.73h-1.83Zm0,3.15h1.83v8.27h-1.83Z"/><path class="cls-8" d="M409,292.23a.92.92,0,0,0,.09.48.35.35,0,0,0,.34.15h.19a.87.87,0,0,0,.26,0v1.27l-.25.07-.31.07-.32,0-.27,0a1.73,1.73,0,0,1-.93-.23,1.09,1.09,0,0,1-.48-.78,3.24,3.24,0,0,1-1.34.77,5.29,5.29,0,0,1-1.53.24,3.47,3.47,0,0,1-1.07-.16,2.9,2.9,0,0,1-.9-.44,2.23,2.23,0,0,1-.63-.76,2.33,2.33,0,0,1-.23-1.06,2.54,2.54,0,0,1,.28-1.25,2,2,0,0,1,.74-.75,3.28,3.28,0,0,1,1-.39c.38-.08.76-.14,1.15-.19a8.45,8.45,0,0,1,.94-.13,4.15,4.15,0,0,0,.79-.14,1.26,1.26,0,0,0,.55-.29.85.85,0,0,0,.2-.6,1,1,0,0,0-.17-.58,1.07,1.07,0,0,0-.42-.34,1.6,1.6,0,0,0-.55-.16,3.86,3.86,0,0,0-.58,0,2.23,2.23,0,0,0-1.26.32,1.23,1.23,0,0,0-.56,1h-1.82a2.75,2.75,0,0,1,.38-1.33,2.69,2.69,0,0,1,.86-.85,3.57,3.57,0,0,1,1.17-.45,7.53,7.53,0,0,1,1.35-.12,6.11,6.11,0,0,1,1.2.12,3.56,3.56,0,0,1,1.06.42,2.34,2.34,0,0,1,.76.74A2.1,2.1,0,0,1,409,288Zm-1.83-2.3a2.2,2.2,0,0,1-1,.33c-.41,0-.81.09-1.22.16a5.73,5.73,0,0,0-.56.14,1.8,1.8,0,0,0-.48.24,1.07,1.07,0,0,0-.32.4,1.4,1.4,0,0,0-.12.6.75.75,0,0,0,.17.51,1.27,1.27,0,0,0,.43.33,1.8,1.8,0,0,0,.54.17,3.74,3.74,0,0,0,.54.05,3.11,3.11,0,0,0,.65-.08,2.32,2.32,0,0,0,.67-.28A1.83,1.83,0,0,0,407,292a1.3,1.3,0,0,0,.2-.73Z"/></g></g></svg>